<?xml version="1.0" encoding="UTF-8" standalone="no"?><svg xmlns="http://www.w3.org/2000/svg" xmlns:xlink="http://www.w3.org/1999/xlink" contentStyleType="text/css" height="1532px" preserveAspectRatio="none" style="width:1174px;height:1532px;background:#FFFFFF;" version="1.1" viewBox="0 0 1174 1532" width="1174px" zoomAndPan="magnify"><defs/><g><!--MD5=[9114de6438c6afbc48a3732648215deb]
class TaxPaymentStatus--><g id="elem_TaxPaymentStatus"><rect codeLine="3" fill="#F1F1F1" height="113.1875" id="TaxPaymentStatus" rx="2.5" ry="2.5" style="stroke:#181818;stroke-width:0.5;" width="167" x="814" y="15"/><ellipse cx="829" cy="31" fill="#EB937F" rx="11" ry="11" style="stroke:#181818;stroke-width:1.0;"/><path d="M827.7969,31.875 L829.25,31.875 L829.25,31.9844 C829.25,32.3906 829.2813,32.5469 829.3594,32.7031 C829.5156,32.9531 829.7969,33.1094 830.0938,33.1094 C830.3438,33.1094 830.6094,32.9688 830.7656,32.75 C830.8906,32.5938 830.9219,32.4375 830.9219,31.9844 L830.9219,30.0625 C830.9219,29.9063 830.9219,29.8594 830.9063,29.7031 C830.8438,29.2344 830.5313,28.9219 830.0781,28.9219 C829.8281,28.9219 829.5625,29.0625 829.3906,29.2813 C829.2813,29.4531 829.25,29.6094 829.25,30.0625 L829.25,30.1875 L827.7969,30.1875 L827.7969,27.7813 L831.7813,27.7813 L831.7813,28.6406 C831.7813,29.0469 831.8125,29.2188 831.8906,29.375 C832.0625,29.625 832.3438,29.7813 832.625,29.7813 C832.8906,29.7813 833.1563,29.6406 833.3281,29.4219 C833.4375,29.25 833.4688,29.1094 833.4688,28.6406 L833.4688,26.0938 L825.8438,26.0938 C825.4063,26.0938 825.2813,26.1094 825.125,26.2031 C824.875,26.3594 824.7188,26.6563 824.7188,26.9375 C824.7188,27.2188 824.8594,27.4688 825.0781,27.6406 C825.2344,27.75 825.4219,27.7813 825.8438,27.7813 L826.0938,27.7813 L826.0938,34.2969 L825.8438,34.2969 C825.4375,34.2969 825.2813,34.3125 825.125,34.4219 C824.875,34.5938 824.7188,34.8594 824.7188,35.1563 C824.7188,35.4219 824.8594,35.6719 825.0781,35.8281 C825.2188,35.9531 825.4531,36 825.8438,36 L833.8438,36 L833.8438,33.4219 C833.8438,32.9844 833.8125,32.8438 833.7344,32.6875 C833.5625,32.4375 833.2813,32.2813 833,32.2813 C832.7344,32.2813 832.4688,32.3906 832.2969,32.6406 C832.1875,32.7969 832.1563,32.9375 832.1563,33.4219 L832.1563,34.2969 L827.7969,34.2969 L827.7969,31.875 Z " fill="#000000"/><text fill="#000000" font-family="sans-serif" font-size="14" lengthAdjust="spacing" textLength="135" x="843" y="35.8467">TaxPaymentStatus</text><line style="stroke:#181818;stroke-width:0.5;" x1="815" x2="980" y1="47" y2="47"/><text fill="#000000" font-family="sans-serif" font-size="14" lengthAdjust="spacing" textLength="77" x="820" y="63.9951">ACCEPTED</text><text fill="#000000" font-family="sans-serif" font-size="14" lengthAdjust="spacing" textLength="83" x="820" y="80.292">INITIALIZED</text><text fill="#000000" font-family="sans-serif" font-size="14" lengthAdjust="spacing" textLength="64" x="820" y="96.5889">PENDING</text><text fill="#000000" font-family="sans-serif" font-size="14" lengthAdjust="spacing" textLength="34" x="820" y="112.8857">PAID</text><line style="stroke:#181818;stroke-width:0.5;" x1="815" x2="980" y1="120.1875" y2="120.1875"/></g><!--MD5=[ebed8c88856cd0605e1ff28eb586b095]
class DepositStatus--><g id="elem_DepositStatus"><rect codeLine="10" fill="#F1F1F1" height="96.8906" id="DepositStatus" rx="2.5" ry="2.5" style="stroke:#181818;stroke-width:0.5;" width="135" x="1016" y="23"/><ellipse cx="1031" cy="39" fill="#EB937F" rx="11" ry="11" style="stroke:#181818;stroke-width:1.0;"/><path d="M1029.7969,39.875 L1031.25,39.875 L1031.25,39.9844 C1031.25,40.3906 1031.2813,40.5469 1031.3594,40.7031 C1031.5156,40.9531 1031.7969,41.1094 1032.0938,41.1094 C1032.3438,41.1094 1032.6094,40.9688 1032.7656,40.75 C1032.8906,40.5938 1032.9219,40.4375 1032.9219,39.9844 L1032.9219,38.0625 C1032.9219,37.9063 1032.9219,37.8594 1032.9063,37.7031 C1032.8438,37.2344 1032.5313,36.9219 1032.0781,36.9219 C1031.8281,36.9219 1031.5625,37.0625 1031.3906,37.2813 C1031.2813,37.4531 1031.25,37.6094 1031.25,38.0625 L1031.25,38.1875 L1029.7969,38.1875 L1029.7969,35.7813 L1033.7813,35.7813 L1033.7813,36.6406 C1033.7813,37.0469 1033.8125,37.2188 1033.8906,37.375 C1034.0625,37.625 1034.3438,37.7813 1034.625,37.7813 C1034.8906,37.7813 1035.1563,37.6406 1035.3281,37.4219 C1035.4375,37.25 1035.4688,37.1094 1035.4688,36.6406 L1035.4688,34.0938 L1027.8438,34.0938 C1027.4063,34.0938 1027.2813,34.1094 1027.125,34.2031 C1026.875,34.3594 1026.7188,34.6563 1026.7188,34.9375 C1026.7188,35.2188 1026.8594,35.4688 1027.0781,35.6406 C1027.2344,35.75 1027.4219,35.7813 1027.8438,35.7813 L1028.0938,35.7813 L1028.0938,42.2969 L1027.8438,42.2969 C1027.4375,42.2969 1027.2813,42.3125 1027.125,42.4219 C1026.875,42.5938 1026.7188,42.8594 1026.7188,43.1563 C1026.7188,43.4219 1026.8594,43.6719 1027.0781,43.8281 C1027.2188,43.9531 1027.4531,44 1027.8438,44 L1035.8438,44 L1035.8438,41.4219 C1035.8438,40.9844 1035.8125,40.8438 1035.7344,40.6875 C1035.5625,40.4375 1035.2813,40.2813 1035,40.2813 C1034.7344,40.2813 1034.4688,40.3906 1034.2969,40.6406 C1034.1875,40.7969 1034.1563,40.9375 1034.1563,41.4219 L1034.1563,42.2969 L1029.7969,42.2969 L1029.7969,39.875 Z " fill="#000000"/><text fill="#000000" font-family="sans-serif" font-size="14" lengthAdjust="spacing" textLength="103" x="1045" y="43.8467">DepositStatus</text><line style="stroke:#181818;stroke-width:0.5;" x1="1017" x2="1150" y1="55" y2="55"/><text fill="#000000" font-family="sans-serif" font-size="14" lengthAdjust="spacing" textLength="77" x="1022" y="71.9951">ACCEPTED</text><text fill="#000000" font-family="sans-serif" font-size="14" lengthAdjust="spacing" textLength="54" x="1022" y="88.292">SIGNED</text><text fill="#000000" font-family="sans-serif" font-size="14" lengthAdjust="spacing" textLength="64" x="1022" y="104.5889">PENDING</text><line style="stroke:#181818;stroke-width:0.5;" x1="1017" x2="1150" y1="111.8906" y2="111.8906"/></g><!--MD5=[3740ced04021a9db89478f117c6526a5]
class BeneficiaryPaymentStatus--><g id="elem_BeneficiaryPaymentStatus"><rect codeLine="16" fill="#F1F1F1" height="80.5938" id="BeneficiaryPaymentStatus" rx="2.5" ry="2.5" style="stroke:#181818;stroke-width:0.5;" width="223" x="786" y="245.5"/><ellipse cx="801" cy="261.5" fill="#EB937F" rx="11" ry="11" style="stroke:#181818;stroke-width:1.0;"/><path d="M799.7969,262.375 L801.25,262.375 L801.25,262.4844 C801.25,262.8906 801.2813,263.0469 801.3594,263.2031 C801.5156,263.4531 801.7969,263.6094 802.0938,263.6094 C802.3438,263.6094 802.6094,263.4688 802.7656,263.25 C802.8906,263.0938 802.9219,262.9375 802.9219,262.4844 L802.9219,260.5625 C802.9219,260.4063 802.9219,260.3594 802.9063,260.2031 C802.8438,259.7344 802.5313,259.4219 802.0781,259.4219 C801.8281,259.4219 801.5625,259.5625 801.3906,259.7813 C801.2813,259.9531 801.25,260.1094 801.25,260.5625 L801.25,260.6875 L799.7969,260.6875 L799.7969,258.2813 L803.7813,258.2813 L803.7813,259.1406 C803.7813,259.5469 803.8125,259.7188 803.8906,259.875 C804.0625,260.125 804.3438,260.2813 804.625,260.2813 C804.8906,260.2813 805.1563,260.1406 805.3281,259.9219 C805.4375,259.75 805.4688,259.6094 805.4688,259.1406 L805.4688,256.5938 L797.8438,256.5938 C797.4063,256.5938 797.2813,256.6094 797.125,256.7031 C796.875,256.8594 796.7188,257.1563 796.7188,257.4375 C796.7188,257.7188 796.8594,257.9688 797.0781,258.1406 C797.2344,258.25 797.4219,258.2813 797.8438,258.2813 L798.0938,258.2813 L798.0938,264.7969 L797.8438,264.7969 C797.4375,264.7969 797.2813,264.8125 797.125,264.9219 C796.875,265.0938 796.7188,265.3594 796.7188,265.6563 C796.7188,265.9219 796.8594,266.1719 797.0781,266.3281 C797.2188,266.4531 797.4531,266.5 797.8438,266.5 L805.8438,266.5 L805.8438,263.9219 C805.8438,263.4844 805.8125,263.3438 805.7344,263.1875 C805.5625,262.9375 805.2813,262.7813 805,262.7813 C804.7344,262.7813 804.4688,262.8906 804.2969,263.1406 C804.1875,263.2969 804.1563,263.4375 804.1563,263.9219 L804.1563,264.7969 L799.7969,264.7969 L799.7969,262.375 Z " fill="#000000"/><text fill="#000000" font-family="sans-serif" font-size="14" lengthAdjust="spacing" textLength="191" x="815" y="266.3467">BeneficiaryPaymentStatus</text><line style="stroke:#181818;stroke-width:0.5;" x1="787" x2="1008" y1="277.5" y2="277.5"/><text fill="#000000" font-family="sans-serif" font-size="14" lengthAdjust="spacing" textLength="71" x="792" y="294.4951">REALIZED</text><text fill="#000000" font-family="sans-serif" font-size="14" lengthAdjust="spacing" textLength="64" x="792" y="310.792">PENDING</text><line style="stroke:#181818;stroke-width:0.5;" x1="787" x2="1008" y1="318.0938" y2="318.0938"/></g><!--MD5=[09ec106234f58eed43c3b45e19bef950]
class CreditStatus--><g id="elem_CreditStatus"><rect codeLine="20" fill="#F1F1F1" height="96.8906" id="CreditStatus" rx="2.5" ry="2.5" style="stroke:#181818;stroke-width:0.5;" width="123" x="1044" y="237.5"/><ellipse cx="1059" cy="253.5" fill="#EB937F" rx="11" ry="11" style="stroke:#181818;stroke-width:1.0;"/><path d="M1057.7969,254.375 L1059.25,254.375 L1059.25,254.4844 C1059.25,254.8906 1059.2813,255.0469 1059.3594,255.2031 C1059.5156,255.4531 1059.7969,255.6094 1060.0938,255.6094 C1060.3438,255.6094 1060.6094,255.4688 1060.7656,255.25 C1060.8906,255.0938 1060.9219,254.9375 1060.9219,254.4844 L1060.9219,252.5625 C1060.9219,252.4063 1060.9219,252.3594 1060.9063,252.2031 C1060.8438,251.7344 1060.5313,251.4219 1060.0781,251.4219 C1059.8281,251.4219 1059.5625,251.5625 1059.3906,251.7813 C1059.2813,251.9531 1059.25,252.1094 1059.25,252.5625 L1059.25,252.6875 L1057.7969,252.6875 L1057.7969,250.2813 L1061.7813,250.2813 L1061.7813,251.1406 C1061.7813,251.5469 1061.8125,251.7188 1061.8906,251.875 C1062.0625,252.125 1062.3438,252.2813 1062.625,252.2813 C1062.8906,252.2813 1063.1563,252.1406 1063.3281,251.9219 C1063.4375,251.75 1063.4688,251.6094 1063.4688,251.1406 L1063.4688,248.5938 L1055.8438,248.5938 C1055.4063,248.5938 1055.2813,248.6094 1055.125,248.7031 C1054.875,248.8594 1054.7188,249.1563 1054.7188,249.4375 C1054.7188,249.7188 1054.8594,249.9688 1055.0781,250.1406 C1055.2344,250.25 1055.4219,250.2813 1055.8438,250.2813 L1056.0938,250.2813 L1056.0938,256.7969 L1055.8438,256.7969 C1055.4375,256.7969 1055.2813,256.8125 1055.125,256.9219 C1054.875,257.0938 1054.7188,257.3594 1054.7188,257.6563 C1054.7188,257.9219 1054.8594,258.1719 1055.0781,258.3281 C1055.2188,258.4531 1055.4531,258.5 1055.8438,258.5 L1063.8438,258.5 L1063.8438,255.9219 C1063.8438,255.4844 1063.8125,255.3438 1063.7344,255.1875 C1063.5625,254.9375 1063.2813,254.7813 1063,254.7813 C1062.7344,254.7813 1062.4688,254.8906 1062.2969,255.1406 C1062.1875,255.2969 1062.1563,255.4375 1062.1563,255.9219 L1062.1563,256.7969 L1057.7969,256.7969 L1057.7969,254.375 Z " fill="#000000"/><text fill="#000000" font-family="sans-serif" font-size="14" lengthAdjust="spacing" textLength="91" x="1073" y="258.3467">CreditStatus</text><line style="stroke:#181818;stroke-width:0.5;" x1="1045" x2="1166" y1="269.5" y2="269.5"/><text fill="#000000" font-family="sans-serif" font-size="14" lengthAdjust="spacing" textLength="70" x="1050" y="286.4951">GRANTED</text><text fill="#000000" font-family="sans-serif" font-size="14" lengthAdjust="spacing" textLength="71" x="1050" y="302.792">REJECTED</text><text fill="#000000" font-family="sans-serif" font-size="14" lengthAdjust="spacing" textLength="64" x="1050" y="319.0889">PENDING</text><line style="stroke:#181818;stroke-width:0.5;" x1="1045" x2="1166" y1="326.3906" y2="326.3906"/></g><!--MD5=[3fd616f346a44cd59a91eb10b19e157c]
class User--><g id="elem_User"><rect codeLine="26" fill="#F1F1F1" height="145.7813" id="User" rx="2.5" ry="2.5" style="stroke:#181818;stroke-width:0.5;" width="355" x="396" y="213"/><ellipse cx="553.25" cy="229" fill="#A9DCDF" rx="11" ry="11" style="stroke:#181818;stroke-width:1.0;"/><path d="M555.3281,230.8125 L555.7188,231.7969 L555.3281,231.7969 C554.875,231.7969 554.7656,231.8125 554.6094,231.9219 C554.3594,232.0781 554.2031,232.3594 554.2031,232.6563 C554.2031,232.9219 554.3438,233.1719 554.5625,233.3281 C554.7031,233.4531 554.9063,233.5 555.3281,233.5 L557.6875,233.5 C558.0469,233.5 558.2656,233.4688 558.4063,233.375 C558.6563,233.2344 558.8125,232.9375 558.8125,232.6563 C558.8125,232.375 558.6719,232.125 558.4531,231.9688 C558.2813,231.8281 558.125,231.7969 557.6563,231.7969 L554.2656,223.5938 L550.5938,223.5938 C550.1406,223.5938 550.0156,223.6094 549.8594,223.7031 C549.6094,223.875 549.4531,224.1563 549.4531,224.4375 C549.4531,224.7188 549.5938,224.9688 549.8125,225.1406 C549.9844,225.25 550.1563,225.2813 550.5938,225.2813 L551.6719,225.2813 L549.0313,231.7969 C548.6094,231.7969 548.4531,231.8125 548.2969,231.9219 C548.0469,232.0781 547.8906,232.3594 547.8906,232.6563 C547.8906,233.2188 548.2656,233.5 549.0156,233.5 L551.2813,233.5 C551.6406,233.5 551.8594,233.4688 551.9844,233.375 C552.25,233.2344 552.3906,232.9375 552.3906,232.6563 C552.3906,232.375 552.2656,232.125 552.0469,231.9531 C551.875,231.8281 551.7344,231.7969 551.2813,231.7969 L550.8906,231.7969 L551.2813,230.8125 L555.3281,230.8125 Z M554.625,229.1094 L551.9531,229.1094 L553.2969,225.8438 L554.625,229.1094 Z " fill="#000000"/><text fill="#000000" font-family="sans-serif" font-size="14" font-style="italic" lengthAdjust="spacing" textLength="32" x="573.75" y="233.8467">User</text><line style="stroke:#181818;stroke-width:0.5;" x1="397" x2="750" y1="245" y2="245"/><text fill="#000000" font-family="sans-serif" font-size="14" lengthAdjust="spacing" textLength="124" x="402" y="261.9951">-String username</text><text fill="#000000" font-family="sans-serif" font-size="14" lengthAdjust="spacing" textLength="121" x="402" y="278.292">-String password</text><text fill="#000000" font-family="sans-serif" font-size="14" lengthAdjust="spacing" textLength="94" x="402" y="294.5889">-String name</text><text fill="#000000" font-family="sans-serif" font-size="14" lengthAdjust="spacing" textLength="74" x="402" y="310.8857">-int idUser</text><line style="stroke:#181818;stroke-width:0.5;" x1="397" x2="750" y1="318.1875" y2="318.1875"/><text fill="#000000" font-family="sans-serif" font-size="14" lengthAdjust="spacing" textLength="343" x="402" y="335.1826">+bool login(username: String, password: String)</text><text fill="#000000" font-family="sans-serif" font-size="14" lengthAdjust="spacing" textLength="101" x="402" y="351.4795">+void logout()</text></g><!--MD5=[db6d18d8099558415abc41d00477ab92]
class Admin--><g id="elem_Admin"><rect codeLine="35" fill="#F1F1F1" height="129.4844" id="Admin" rx="2.5" ry="2.5" style="stroke:#181818;stroke-width:0.5;" width="360" x="160.5" y="7"/><ellipse cx="313.25" cy="23" fill="#ADD1B2" rx="11" ry="11" style="stroke:#181818;stroke-width:1.0;"/><path d="M315.5938,18.6719 C314.6563,18.2344 314.0625,18.0938 313.1875,18.0938 C310.5625,18.0938 308.5625,20.1719 308.5625,22.8906 L308.5625,24.0156 C308.5625,26.5938 310.6719,28.4844 313.5625,28.4844 C314.7813,28.4844 315.9375,28.1875 316.6875,27.6406 C317.2656,27.2344 317.5938,26.7813 317.5938,26.3906 C317.5938,25.9375 317.2031,25.5469 316.7344,25.5469 C316.5156,25.5469 316.3125,25.625 316.125,25.8125 C315.6719,26.2969 315.6719,26.2969 315.4844,26.3906 C315.0625,26.6563 314.375,26.7813 313.6094,26.7813 C311.5625,26.7813 310.2656,25.6875 310.2656,23.9844 L310.2656,22.8906 C310.2656,21.1094 311.5156,19.7969 313.25,19.7969 C313.8281,19.7969 314.4375,19.9531 314.9063,20.2031 C315.3906,20.4844 315.5625,20.7031 315.6563,21.1094 C315.7188,21.5156 315.75,21.6406 315.8906,21.7656 C316.0313,21.9063 316.2656,22.0156 316.4844,22.0156 C316.75,22.0156 317.0156,21.875 317.1875,21.6563 C317.2969,21.5 317.3281,21.3125 317.3281,20.8906 L317.3281,19.4688 C317.3281,19.0313 317.3125,18.9063 317.2188,18.75 C317.0625,18.4844 316.7813,18.3438 316.4844,18.3438 C316.1875,18.3438 315.9844,18.4375 315.7656,18.75 L315.5938,18.6719 Z " fill="#000000"/><text fill="#000000" font-family="sans-serif" font-size="14" lengthAdjust="spacing" textLength="46" x="333.75" y="27.8467">Admin</text><line style="stroke:#181818;stroke-width:0.5;" x1="161.5" x2="519.5" y1="39" y2="39"/><text fill="#000000" font-family="sans-serif" font-size="14" lengthAdjust="spacing" textLength="89" x="166.5" y="55.9951">-int idAdmin</text><text fill="#000000" font-family="sans-serif" font-size="14" lengthAdjust="spacing" textLength="124" x="166.5" y="72.292">-String username</text><text fill="#000000" font-family="sans-serif" font-size="14" lengthAdjust="spacing" textLength="121" x="166.5" y="88.5889">-String password</text><line style="stroke:#181818;stroke-width:0.5;" x1="161.5" x2="519.5" y1="95.8906" y2="95.8906"/><text fill="#000000" font-family="sans-serif" font-size="14" lengthAdjust="spacing" textLength="348" x="166.5" y="112.8857">+login(username: String, password: String): bool</text><text fill="#000000" font-family="sans-serif" font-size="14" lengthAdjust="spacing" textLength="67" x="166.5" y="129.1826">+logout()</text></g><!--MD5=[cca5d97aaf46870920fae66c9bd85cdd]
class Operation--><g id="elem_Operation"><rect codeLine="47" fill="#F1F1F1" height="585.7969" id="Operation" rx="2.5" ry="2.5" style="stroke:#181818;stroke-width:0.5;" width="404" x="287.5" y="690"/><ellipse cx="448.75" cy="706" fill="#ADD1B2" rx="11" ry="11" style="stroke:#181818;stroke-width:1.0;"/><path d="M451.0938,701.6719 C450.1563,701.2344 449.5625,701.0938 448.6875,701.0938 C446.0625,701.0938 444.0625,703.1719 444.0625,705.8906 L444.0625,707.0156 C444.0625,709.5938 446.1719,711.4844 449.0625,711.4844 C450.2813,711.4844 451.4375,711.1875 452.1875,710.6406 C452.7656,710.2344 453.0938,709.7813 453.0938,709.3906 C453.0938,708.9375 452.7031,708.5469 452.2344,708.5469 C452.0156,708.5469 451.8125,708.625 451.625,708.8125 C451.1719,709.2969 451.1719,709.2969 450.9844,709.3906 C450.5625,709.6563 449.875,709.7813 449.1094,709.7813 C447.0625,709.7813 445.7656,708.6875 445.7656,706.9844 L445.7656,705.8906 C445.7656,704.1094 447.0156,702.7969 448.75,702.7969 C449.3281,702.7969 449.9375,702.9531 450.4063,703.2031 C450.8906,703.4844 451.0625,703.7031 451.1563,704.1094 C451.2188,704.5156 451.25,704.6406 451.3906,704.7656 C451.5313,704.9063 451.7656,705.0156 451.9844,705.0156 C452.25,705.0156 452.5156,704.875 452.6875,704.6563 C452.7969,704.5 452.8281,704.3125 452.8281,703.8906 L452.8281,702.4688 C452.8281,702.0313 452.8125,701.9063 452.7188,701.75 C452.5625,701.4844 452.2813,701.3438 451.9844,701.3438 C451.6875,701.3438 451.4844,701.4375 451.2656,701.75 L451.0938,701.6719 Z " fill="#000000"/><text fill="#000000" font-family="sans-serif" font-size="14" lengthAdjust="spacing" textLength="73" x="469.25" y="710.8467">Operation</text><line style="stroke:#181818;stroke-width:0.5;" x1="288.5" x2="690.5" y1="722" y2="722"/><text fill="#000000" font-family="sans-serif" font-size="14" lengthAdjust="spacing" textLength="125" x="293.5" y="738.9951">-String reference</text><text fill="#000000" font-family="sans-serif" font-size="14" lengthAdjust="spacing" textLength="112" x="293.5" y="755.292">-String[] buyers</text><text fill="#000000" font-family="sans-serif" font-size="14" lengthAdjust="spacing" textLength="110" x="293.5" y="771.5889">-String[] sellers</text><text fill="#000000" font-family="sans-serif" font-size="14" lengthAdjust="spacing" textLength="78" x="293.5" y="787.8857">-Date date</text><text fill="#000000" font-family="sans-serif" font-size="14" lengthAdjust="spacing" textLength="99" x="293.5" y="804.1826">-float amount</text><text fill="#000000" font-family="sans-serif" font-size="14" lengthAdjust="spacing" textLength="214" x="293.5" y="820.4795">-DepositStatus depositStatus</text><text fill="#000000" font-family="sans-serif" font-size="14" lengthAdjust="spacing" textLength="115" x="293.5" y="836.7764">-File depositFile</text><text fill="#000000" font-family="sans-serif" font-size="14" lengthAdjust="spacing" textLength="205" x="293.5" y="853.0732">-File engagementNotarieFile</text><text fill="#000000" font-family="sans-serif" font-size="14" lengthAdjust="spacing" textLength="106" x="293.5" y="869.3701">-File sellingFile</text><text fill="#000000" font-family="sans-serif" font-size="14" lengthAdjust="spacing" textLength="180" x="293.5" y="885.667">-File minuteSignatureFile</text><text fill="#000000" font-family="sans-serif" font-size="14" lengthAdjust="spacing" textLength="147" x="293.5" y="901.9639">-File taxPaymentFile</text><text fill="#000000" font-family="sans-serif" font-size="14" lengthAdjust="spacing" textLength="150" x="293.5" y="918.2607">-File[] guaranteeFiles</text><text fill="#000000" font-family="sans-serif" font-size="14" lengthAdjust="spacing" textLength="190" x="293.5" y="934.5576">-CreditStatus creditStatus</text><text fill="#000000" font-family="sans-serif" font-size="14" lengthAdjust="spacing" textLength="148" x="293.5" y="950.8545">-String beneficiaryId</text><text fill="#000000" font-family="sans-serif" font-size="14" lengthAdjust="spacing" textLength="392" x="293.5" y="967.1514">-BeneficiaryPaymentStatus beneficiaryPaymentStatus</text><text fill="#000000" font-family="sans-serif" font-size="14" lengthAdjust="spacing" textLength="278" x="293.5" y="983.4482">-TaxPaymentStatus taxPaymentStatus</text><text fill="#000000" font-family="sans-serif" font-size="14" lengthAdjust="spacing" textLength="157" x="293.5" y="999.7451">-bool fundsUnblocked</text><text fill="#000000" font-family="sans-serif" font-size="14" lengthAdjust="spacing" textLength="87" x="293.5" y="1016.042">-bool ended</text><line style="stroke:#181818;stroke-width:0.5;" x1="288.5" x2="690.5" y1="1023.3438" y2="1023.3438"/><text fill="#000000" font-family="sans-serif" font-size="14" lengthAdjust="spacing" textLength="152" x="293.5" y="1040.3389">+getAll(String query)</text><text fill="#000000" font-family="sans-serif" font-size="14" lengthAdjust="spacing" textLength="150" x="293.5" y="1056.6357">+addNewOperation()</text><text fill="#000000" font-family="sans-serif" font-size="14" lengthAdjust="spacing" textLength="176" x="293.5" y="1072.9326">+viewOperationDetails()</text><text fill="#000000" font-family="sans-serif" font-size="14" lengthAdjust="spacing" textLength="162" x="293.5" y="1089.2295">+endOperation(): bool</text><text fill="#000000" font-family="sans-serif" font-size="14" lengthAdjust="spacing" textLength="205" x="293.5" y="1105.5264">+changeCreditStatus(): bool</text><text fill="#000000" font-family="sans-serif" font-size="14" lengthAdjust="spacing" textLength="150" x="293.5" y="1121.8232">+unlockFunds(): bool</text><text fill="#000000" font-family="sans-serif" font-size="14" lengthAdjust="spacing" textLength="258" x="293.5" y="1138.1201">+addEngagementNotarieFile(): bool</text><text fill="#000000" font-family="sans-serif" font-size="14" lengthAdjust="spacing" textLength="148" x="293.5" y="1154.417">+signDeposit(): bool</text><text fill="#000000" font-family="sans-serif" font-size="14" lengthAdjust="spacing" textLength="169" x="293.5" y="1170.7139">+acceptDeposit(): bool</text><text fill="#000000" font-family="sans-serif" font-size="14" lengthAdjust="spacing" textLength="247" x="293.5" y="1187.0107">+addSignatureLaMinuteFile(): bool</text><text fill="#000000" font-family="sans-serif" font-size="14" lengthAdjust="spacing" textLength="203" x="293.5" y="1203.3076">+initiateTaxPayment(): bool</text><text fill="#000000" font-family="sans-serif" font-size="14" lengthAdjust="spacing" textLength="201" x="293.5" y="1219.6045">+acceptTaxPayment(): bool</text><text fill="#000000" font-family="sans-serif" font-size="14" lengthAdjust="spacing" textLength="129" x="293.5" y="1235.9014">+payTaxes(): bool</text><text fill="#000000" font-family="sans-serif" font-size="14" lengthAdjust="spacing" textLength="199" x="293.5" y="1252.1982">+formalizeGaranties(): bool</text><text fill="#000000" font-family="sans-serif" font-size="14" lengthAdjust="spacing" textLength="169" x="293.5" y="1268.4951">+payBeneficiary(): bool</text></g><!--MD5=[76b5e19c9337179d2d7ae334371d68c8]
class Notification--><g id="elem_Notification"><rect codeLine="84" fill="#F1F1F1" height="145.7813" id="Notification" rx="2.5" ry="2.5" style="stroke:#181818;stroke-width:0.5;" width="200" x="544.5" y="436"/><ellipse cx="597.75" cy="452" fill="#ADD1B2" rx="11" ry="11" style="stroke:#181818;stroke-width:1.0;"/><path d="M600.0938,447.6719 C599.1563,447.2344 598.5625,447.0938 597.6875,447.0938 C595.0625,447.0938 593.0625,449.1719 593.0625,451.8906 L593.0625,453.0156 C593.0625,455.5938 595.1719,457.4844 598.0625,457.4844 C599.2813,457.4844 600.4375,457.1875 601.1875,456.6406 C601.7656,456.2344 602.0938,455.7813 602.0938,455.3906 C602.0938,454.9375 601.7031,454.5469 601.2344,454.5469 C601.0156,454.5469 600.8125,454.625 600.625,454.8125 C600.1719,455.2969 600.1719,455.2969 599.9844,455.3906 C599.5625,455.6563 598.875,455.7813 598.1094,455.7813 C596.0625,455.7813 594.7656,454.6875 594.7656,452.9844 L594.7656,451.8906 C594.7656,450.1094 596.0156,448.7969 597.75,448.7969 C598.3281,448.7969 598.9375,448.9531 599.4063,449.2031 C599.8906,449.4844 600.0625,449.7031 600.1563,450.1094 C600.2188,450.5156 600.25,450.6406 600.3906,450.7656 C600.5313,450.9063 600.7656,451.0156 600.9844,451.0156 C601.25,451.0156 601.5156,450.875 601.6875,450.6563 C601.7969,450.5 601.8281,450.3125 601.8281,449.8906 L601.8281,448.4688 C601.8281,448.0313 601.8125,447.9063 601.7188,447.75 C601.5625,447.4844 601.2813,447.3438 600.9844,447.3438 C600.6875,447.3438 600.4844,447.4375 600.2656,447.75 L600.0938,447.6719 Z " fill="#000000"/><text fill="#000000" font-family="sans-serif" font-size="14" lengthAdjust="spacing" textLength="85" x="618.25" y="456.8467">Notification</text><line style="stroke:#181818;stroke-width:0.5;" x1="545.5" x2="743.5" y1="468" y2="468"/><text fill="#000000" font-family="sans-serif" font-size="14" lengthAdjust="spacing" textLength="128" x="550.5" y="484.9951">-int idNotification</text><text fill="#000000" font-family="sans-serif" font-size="14" lengthAdjust="spacing" textLength="117" x="550.5" y="501.292">-String message</text><line style="stroke:#181818;stroke-width:0.5;" x1="545.5" x2="743.5" y1="508.5938" y2="508.5938"/><text fill="#000000" font-family="sans-serif" font-size="14" lengthAdjust="spacing" textLength="64" x="550.5" y="525.5889">+getAll()</text><text fill="#000000" font-family="sans-serif" font-size="14" lengthAdjust="spacing" textLength="134" x="550.5" y="541.8857">+AddNotification()</text><text fill="#000000" font-family="sans-serif" font-size="14" lengthAdjust="spacing" textLength="188" x="550.5" y="558.1826">+viewNotificationDetails()</text><text fill="#000000" font-family="sans-serif" font-size="14" lengthAdjust="spacing" textLength="111" x="550.5" y="574.4795">+markAsRead()</text></g><!--MD5=[dc256920c6239295d636cfadeca330e4]
class Notaire--><g id="elem_Notaire"><rect fill="#F1F1F1" height="48" id="Notaire" rx="2.5" ry="2.5" style="stroke:#181818;stroke-width:0.5;" width="85" x="505" y="1477"/><ellipse cx="520" cy="1493" fill="#ADD1B2" rx="11" ry="11" style="stroke:#181818;stroke-width:1.0;"/><path d="M522.3438,1488.6719 C521.4063,1488.2344 520.8125,1488.0938 519.9375,1488.0938 C517.3125,1488.0938 515.3125,1490.1719 515.3125,1492.8906 L515.3125,1494.0156 C515.3125,1496.5938 517.4219,1498.4844 520.3125,1498.4844 C521.5313,1498.4844 522.6875,1498.1875 523.4375,1497.6406 C524.0156,1497.2344 524.3438,1496.7813 524.3438,1496.3906 C524.3438,1495.9375 523.9531,1495.5469 523.4844,1495.5469 C523.2656,1495.5469 523.0625,1495.625 522.875,1495.8125 C522.4219,1496.2969 522.4219,1496.2969 522.2344,1496.3906 C521.8125,1496.6563 521.125,1496.7813 520.3594,1496.7813 C518.3125,1496.7813 517.0156,1495.6875 517.0156,1493.9844 L517.0156,1492.8906 C517.0156,1491.1094 518.2656,1489.7969 520,1489.7969 C520.5781,1489.7969 521.1875,1489.9531 521.6563,1490.2031 C522.1406,1490.4844 522.3125,1490.7031 522.4063,1491.1094 C522.4688,1491.5156 522.5,1491.6406 522.6406,1491.7656 C522.7813,1491.9063 523.0156,1492.0156 523.2344,1492.0156 C523.5,1492.0156 523.7656,1491.875 523.9375,1491.6563 C524.0469,1491.5 524.0781,1491.3125 524.0781,1490.8906 L524.0781,1489.4688 C524.0781,1489.0313 524.0625,1488.9063 523.9688,1488.75 C523.8125,1488.4844 523.5313,1488.3438 523.2344,1488.3438 C522.9375,1488.3438 522.7344,1488.4375 522.5156,1488.75 L522.3438,1488.6719 Z " fill="#000000"/><text fill="#000000" font-family="sans-serif" font-size="14" lengthAdjust="spacing" textLength="53" x="534" y="1497.8467">Notaire</text><line style="stroke:#181818;stroke-width:0.5;" x1="506" x2="589" y1="1509" y2="1509"/><line style="stroke:#181818;stroke-width:0.5;" x1="506" x2="589" y1="1517" y2="1517"/></g><!--MD5=[aac899e22da5850fb9a0006f3766a31d]
class Banque--><g id="elem_Banque"><rect fill="#F1F1F1" height="48" id="Banque" rx="2.5" ry="2.5" style="stroke:#181818;stroke-width:0.5;" width="85" x="7" y="959"/><ellipse cx="22" cy="975" fill="#ADD1B2" rx="11" ry="11" style="stroke:#181818;stroke-width:1.0;"/><path d="M24.3438,970.6719 C23.4063,970.2344 22.8125,970.0938 21.9375,970.0938 C19.3125,970.0938 17.3125,972.1719 17.3125,974.8906 L17.3125,976.0156 C17.3125,978.5938 19.4219,980.4844 22.3125,980.4844 C23.5313,980.4844 24.6875,980.1875 25.4375,979.6406 C26.0156,979.2344 26.3438,978.7813 26.3438,978.3906 C26.3438,977.9375 25.9531,977.5469 25.4844,977.5469 C25.2656,977.5469 25.0625,977.625 24.875,977.8125 C24.4219,978.2969 24.4219,978.2969 24.2344,978.3906 C23.8125,978.6563 23.125,978.7813 22.3594,978.7813 C20.3125,978.7813 19.0156,977.6875 19.0156,975.9844 L19.0156,974.8906 C19.0156,973.1094 20.2656,971.7969 22,971.7969 C22.5781,971.7969 23.1875,971.9531 23.6563,972.2031 C24.1406,972.4844 24.3125,972.7031 24.4063,973.1094 C24.4688,973.5156 24.5,973.6406 24.6406,973.7656 C24.7813,973.9063 25.0156,974.0156 25.2344,974.0156 C25.5,974.0156 25.7656,973.875 25.9375,973.6563 C26.0469,973.5 26.0781,973.3125 26.0781,972.8906 L26.0781,971.4688 C26.0781,971.0313 26.0625,970.9063 25.9688,970.75 C25.8125,970.4844 25.5313,970.3438 25.2344,970.3438 C24.9375,970.3438 24.7344,970.4375 24.5156,970.75 L24.3438,970.6719 Z " fill="#000000"/><text fill="#000000" font-family="sans-serif" font-size="14" lengthAdjust="spacing" textLength="53" x="36" y="979.8467">Banque</text><line style="stroke:#181818;stroke-width:0.5;" x1="8" x2="91" y1="991" y2="991"/><line style="stroke:#181818;stroke-width:0.5;" x1="8" x2="91" y1="999" y2="999"/></g><!--MD5=[6aa42e28753dd107b7d0fb2d07f74531]
class CDG--><g id="elem_CDG"><rect fill="#F1F1F1" height="48" id="CDG" rx="2.5" ry="2.5" style="stroke:#181818;stroke-width:0.5;" width="64" x="878.5" y="959"/><ellipse cx="893.5" cy="975" fill="#ADD1B2" rx="11" ry="11" style="stroke:#181818;stroke-width:1.0;"/><path d="M895.8438,970.6719 C894.9063,970.2344 894.3125,970.0938 893.4375,970.0938 C890.8125,970.0938 888.8125,972.1719 888.8125,974.8906 L888.8125,976.0156 C888.8125,978.5938 890.9219,980.4844 893.8125,980.4844 C895.0313,980.4844 896.1875,980.1875 896.9375,979.6406 C897.5156,979.2344 897.8438,978.7813 897.8438,978.3906 C897.8438,977.9375 897.4531,977.5469 896.9844,977.5469 C896.7656,977.5469 896.5625,977.625 896.375,977.8125 C895.9219,978.2969 895.9219,978.2969 895.7344,978.3906 C895.3125,978.6563 894.625,978.7813 893.8594,978.7813 C891.8125,978.7813 890.5156,977.6875 890.5156,975.9844 L890.5156,974.8906 C890.5156,973.1094 891.7656,971.7969 893.5,971.7969 C894.0781,971.7969 894.6875,971.9531 895.1563,972.2031 C895.6406,972.4844 895.8125,972.7031 895.9063,973.1094 C895.9688,973.5156 896,973.6406 896.1406,973.7656 C896.2813,973.9063 896.5156,974.0156 896.7344,974.0156 C897,974.0156 897.2656,973.875 897.4375,973.6563 C897.5469,973.5 897.5781,973.3125 897.5781,972.8906 L897.5781,971.4688 C897.5781,971.0313 897.5625,970.9063 897.4688,970.75 C897.3125,970.4844 897.0313,970.3438 896.7344,970.3438 C896.4375,970.3438 896.2344,970.4375 896.0156,970.75 L895.8438,970.6719 Z " fill="#000000"/><text fill="#000000" font-family="sans-serif" font-size="14" lengthAdjust="spacing" textLength="32" x="907.5" y="979.8467">CDG</text><line style="stroke:#181818;stroke-width:0.5;" x1="879.5" x2="941.5" y1="991" y2="991"/><line style="stroke:#181818;stroke-width:0.5;" x1="879.5" x2="941.5" y1="999" y2="999"/></g><!--MD5=[0d25bbee45629fd432d00bbef39b1d51]
class DGI--><g id="elem_DGI"><rect fill="#F1F1F1" height="48" id="DGI" rx="2.5" ry="2.5" style="stroke:#181818;stroke-width:0.5;" width="58" x="711.5" y="612"/><ellipse cx="726.5" cy="628" fill="#ADD1B2" rx="11" ry="11" style="stroke:#181818;stroke-width:1.0;"/><path d="M728.8438,623.6719 C727.9063,623.2344 727.3125,623.0938 726.4375,623.0938 C723.8125,623.0938 721.8125,625.1719 721.8125,627.8906 L721.8125,629.0156 C721.8125,631.5938 723.9219,633.4844 726.8125,633.4844 C728.0313,633.4844 729.1875,633.1875 729.9375,632.6406 C730.5156,632.2344 730.8438,631.7813 730.8438,631.3906 C730.8438,630.9375 730.4531,630.5469 729.9844,630.5469 C729.7656,630.5469 729.5625,630.625 729.375,630.8125 C728.9219,631.2969 728.9219,631.2969 728.7344,631.3906 C728.3125,631.6563 727.625,631.7813 726.8594,631.7813 C724.8125,631.7813 723.5156,630.6875 723.5156,628.9844 L723.5156,627.8906 C723.5156,626.1094 724.7656,624.7969 726.5,624.7969 C727.0781,624.7969 727.6875,624.9531 728.1563,625.2031 C728.6406,625.4844 728.8125,625.7031 728.9063,626.1094 C728.9688,626.5156 729,626.6406 729.1406,626.7656 C729.2813,626.9063 729.5156,627.0156 729.7344,627.0156 C730,627.0156 730.2656,626.875 730.4375,626.6563 C730.5469,626.5 730.5781,626.3125 730.5781,625.8906 L730.5781,624.4688 C730.5781,624.0313 730.5625,623.9063 730.4688,623.75 C730.3125,623.4844 730.0313,623.3438 729.7344,623.3438 C729.4375,623.3438 729.2344,623.4375 729.0156,623.75 L728.8438,623.6719 Z " fill="#000000"/><text fill="#000000" font-family="sans-serif" font-size="14" lengthAdjust="spacing" textLength="26" x="740.5" y="632.8467">DGI</text><line style="stroke:#181818;stroke-width:0.5;" x1="712.5" x2="768.5" y1="644" y2="644"/><line style="stroke:#181818;stroke-width:0.5;" x1="712.5" x2="768.5" y1="652" y2="652"/></g><!--MD5=[e0beebb9ff2cfa43709e49e80e6fae09]
class ANCFCC--><g id="elem_ANCFCC"><rect fill="#F1F1F1" height="48" id="ANCFCC" rx="2.5" ry="2.5" style="stroke:#181818;stroke-width:0.5;" width="90" x="274.5" y="485"/><ellipse cx="289.5" cy="501" fill="#ADD1B2" rx="11" ry="11" style="stroke:#181818;stroke-width:1.0;"/><path d="M291.8438,496.6719 C290.9063,496.2344 290.3125,496.0938 289.4375,496.0938 C286.8125,496.0938 284.8125,498.1719 284.8125,500.8906 L284.8125,502.0156 C284.8125,504.5938 286.9219,506.4844 289.8125,506.4844 C291.0313,506.4844 292.1875,506.1875 292.9375,505.6406 C293.5156,505.2344 293.8438,504.7813 293.8438,504.3906 C293.8438,503.9375 293.4531,503.5469 292.9844,503.5469 C292.7656,503.5469 292.5625,503.625 292.375,503.8125 C291.9219,504.2969 291.9219,504.2969 291.7344,504.3906 C291.3125,504.6563 290.625,504.7813 289.8594,504.7813 C287.8125,504.7813 286.5156,503.6875 286.5156,501.9844 L286.5156,500.8906 C286.5156,499.1094 287.7656,497.7969 289.5,497.7969 C290.0781,497.7969 290.6875,497.9531 291.1563,498.2031 C291.6406,498.4844 291.8125,498.7031 291.9063,499.1094 C291.9688,499.5156 292,499.6406 292.1406,499.7656 C292.2813,499.9063 292.5156,500.0156 292.7344,500.0156 C293,500.0156 293.2656,499.875 293.4375,499.6563 C293.5469,499.5 293.5781,499.3125 293.5781,498.8906 L293.5781,497.4688 C293.5781,497.0313 293.5625,496.9063 293.4688,496.75 C293.3125,496.4844 293.0313,496.3438 292.7344,496.3438 C292.4375,496.3438 292.2344,496.4375 292.0156,496.75 L291.8438,496.6719 Z " fill="#000000"/><text fill="#000000" font-family="sans-serif" font-size="14" lengthAdjust="spacing" textLength="58" x="303.5" y="505.8467">ANCFCC</text><line style="stroke:#181818;stroke-width:0.5;" x1="275.5" x2="363.5" y1="517" y2="517"/><line style="stroke:#181818;stroke-width:0.5;" x1="275.5" x2="363.5" y1="525" y2="525"/></g><!--MD5=[9fc7b0959fb3b31b30eb5663ab2965c6]
class Promoteur--><g id="elem_Promoteur"><rect fill="#F1F1F1" height="48" id="Promoteur" rx="2.5" ry="2.5" style="stroke:#181818;stroke-width:0.5;" width="109" x="400" y="485"/><ellipse cx="415" cy="501" fill="#ADD1B2" rx="11" ry="11" style="stroke:#181818;stroke-width:1.0;"/><path d="M417.3438,496.6719 C416.4063,496.2344 415.8125,496.0938 414.9375,496.0938 C412.3125,496.0938 410.3125,498.1719 410.3125,500.8906 L410.3125,502.0156 C410.3125,504.5938 412.4219,506.4844 415.3125,506.4844 C416.5313,506.4844 417.6875,506.1875 418.4375,505.6406 C419.0156,505.2344 419.3438,504.7813 419.3438,504.3906 C419.3438,503.9375 418.9531,503.5469 418.4844,503.5469 C418.2656,503.5469 418.0625,503.625 417.875,503.8125 C417.4219,504.2969 417.4219,504.2969 417.2344,504.3906 C416.8125,504.6563 416.125,504.7813 415.3594,504.7813 C413.3125,504.7813 412.0156,503.6875 412.0156,501.9844 L412.0156,500.8906 C412.0156,499.1094 413.2656,497.7969 415,497.7969 C415.5781,497.7969 416.1875,497.9531 416.6563,498.2031 C417.1406,498.4844 417.3125,498.7031 417.4063,499.1094 C417.4688,499.5156 417.5,499.6406 417.6406,499.7656 C417.7813,499.9063 418.0156,500.0156 418.2344,500.0156 C418.5,500.0156 418.7656,499.875 418.9375,499.6563 C419.0469,499.5 419.0781,499.3125 419.0781,498.8906 L419.0781,497.4688 C419.0781,497.0313 419.0625,496.9063 418.9688,496.75 C418.8125,496.4844 418.5313,496.3438 418.2344,496.3438 C417.9375,496.3438 417.7344,496.4375 417.5156,496.75 L417.3438,496.6719 Z " fill="#000000"/><text fill="#000000" font-family="sans-serif" font-size="14" lengthAdjust="spacing" textLength="77" x="429" y="505.8467">Promoteur</text><line style="stroke:#181818;stroke-width:0.5;" x1="401" x2="508" y1="517" y2="517"/><line style="stroke:#181818;stroke-width:0.5;" x1="401" x2="508" y1="525" y2="525"/></g><!--MD5=[f116c49921813dec53efed1c6b99f008]
reverse link User to Notaire--><g id="link_User_Notaire"><path codeLine="95" d="M761.939,367.35 C874.396,418.25 995.5,479.65 995.5,508 C995.5,508 995.5,508 995.5,1416 C995.5,1457.0009 701.879,1486.6695 590.051,1496.4823 " fill="none" id="User-backto-Notaire" style="stroke:#181818;stroke-width:1.0;"/><polygon fill="none" points="758.995,373.7,743.623,359.11,764.735,360.93,758.995,373.7" style="stroke:#181818;stroke-width:1.0;"/></g><!--MD5=[34e16f49daa5d1858379675f6f484dea]
reverse link User to Banque--><g id="link_User_Banque"><path codeLine="96" d="M377.58,350.48 C333.356,372.07 289.724,400.11 256.5,436 C107.223,597.239 62.3342,876.852 52.0786,958.802 " fill="none" id="User-backto-Banque" style="stroke:#181818;stroke-width:1.0;"/><polygon fill="none" points="374.785,344.06,395.867,341.93,380.72,356.74,374.785,344.06" style="stroke:#181818;stroke-width:1.0;"/></g><!--MD5=[049280f1193391288c6c954a0778d7be]
reverse link User to CDG--><g id="link_User_CDG"><path codeLine="97" d="M746.955,371.97 C767.356,389.97 784.724,411.2 795.5,436 C878.399,626.801 903.141,881.708 908.962,958.902 " fill="none" id="User-backto-CDG" style="stroke:#181818;stroke-width:1.0;"/><polygon fill="none" points="742.29,377.2,731.219,359.13,751.141,366.35,742.29,377.2" style="stroke:#181818;stroke-width:1.0;"/></g><!--MD5=[14166350fb5582dd00d134aa83f23589]
reverse link User to DGI--><g id="link_User_DGI"><path codeLine="98" d="M712.862,372.52 C732.534,390.92 749.96,412.13 761.5,436 C789.742,494.42 773.667,518.26 761.5,582 C759.57,592.111 755.742,602.754 751.877,611.827 " fill="none" id="User-backto-DGI" style="stroke:#181818;stroke-width:1.0;"/><polygon fill="none" points="708.229,377.76,697.819,359.31,717.466,367.24,708.229,377.76" style="stroke:#181818;stroke-width:1.0;"/></g><!--MD5=[af657f832ba1b0e33d2705583f5e59bd]
reverse link User to ANCFCC--><g id="link_User_ANCFCC"><path codeLine="99" d="M457.285,371.97 C431.88,392.09 405.676,414.09 382.5,436 C366.325,451.29 349.822,470.3 337.766,484.95 " fill="none" id="User-backto-ANCFCC" style="stroke:#181818;stroke-width:1.0;"/><polygon fill="none" points="453.326,366.18,473.393,359.38,461.95,377.21,453.326,366.18" style="stroke:#181818;stroke-width:1.0;"/></g><!--MD5=[62679deb9fc1b64861eb2f1f535ec175]
reverse link User to Promoteur--><g id="link_User_Promoteur"><path codeLine="100" d="M525.13,376.83 C503.914,416.23 480.741,459.27 466.924,484.93 " fill="none" id="User-backto-Promoteur" style="stroke:#181818;stroke-width:1.0;"/><polygon fill="none" points="519.054,373.35,534.7,359.06,531.381,379.99,519.054,373.35" style="stroke:#181818;stroke-width:1.0;"/></g><!--MD5=[7b4ddf09a64e09e9b1d4e3ce48fa3a52]
link Operation to Notaire--><g id="link_Operation_Notaire"><path codeLine="102" d="M522.356,1276.301 C530.801,1351.437 538.802,1422.622 543.426,1463.7522 " fill="none" id="Operation-to-Notaire" style="stroke:#181818;stroke-width:1.0;"/><polygon fill="#181818" points="544.887,1476.7576,548.1917,1470.3483,543.5464,1464.8327,540.2418,1471.242,544.887,1476.7576" style="stroke:#181818;stroke-width:1.0;"/><polygon fill="#000000" points="539.9415,1371.5977,538.0313,1380.9145,543.8724,1380.2579,539.9415,1371.5977" style="stroke:#000000;stroke-width:1.0;"/><text fill="#000000" font-family="sans-serif" font-size="13" lengthAdjust="spacing" textLength="50" x="549.5" y="1381.0669">initiates</text><text fill="#000000" font-family="sans-serif" font-size="13" lengthAdjust="spacing" textLength="23" x="499.8565" y="1295.4219">0..*</text><text fill="#000000" font-family="sans-serif" font-size="13" lengthAdjust="spacing" textLength="8" x="535.2751" y="1466.1035">1</text></g><!--MD5=[7b4ddf09a64e09e9b1d4e3ce48fa3a52]
link Operation to Notaire--><g id="link_Operation_Notaire"><path codeLine="103" d="M589.9,1276.191 C597.482,1306.9 603.942,1337.895 608.5,1368 C614.698,1408.936 587.92,1451.5955 567.873,1476.9702 " fill="none" id="Operation-Notaire" style="stroke:#181818;stroke-width:1.0;"/><polygon fill="#000000" points="615.0453,1371.5962,611.1375,1380.2669,616.9803,1380.9079,615.0453,1371.5962" style="stroke:#000000;stroke-width:1.0;"/><text fill="#000000" font-family="sans-serif" font-size="13" lengthAdjust="spacing" textLength="166" x="623.5" y="1381.0669">adds engagement notarie</text><text fill="#000000" font-family="sans-serif" font-size="13" lengthAdjust="spacing" textLength="23" x="569.2614" y="1296.2495">0..*</text><text fill="#000000" font-family="sans-serif" font-size="13" lengthAdjust="spacing" textLength="8" x="564.0686" y="1465.9746">1</text></g><!--MD5=[7b4ddf09a64e09e9b1d4e3ce48fa3a52]
link Operation to Notaire--><g id="link_Operation_Notaire"><path codeLine="104" d="M691.579,1183.578 C735.218,1238.832 775.215,1301.922 798.5,1368 C830.245,1458.0862 669.732,1487.4404 590.122,1496.3749 " fill="none" id="Operation-Notaire-1" style="stroke:#181818;stroke-width:1.0;"/><polygon fill="#000000" points="809.0427,1371.8103,803.4564,1379.5074,809.0475,1381.3209,809.0427,1371.8103" style="stroke:#000000;stroke-width:1.0;"/><text fill="#000000" font-family="sans-serif" font-size="13" lengthAdjust="spacing" textLength="84" x="816.5" y="1381.0669">signs deposit</text><text fill="#000000" font-family="sans-serif" font-size="13" lengthAdjust="spacing" textLength="23" x="699.2545" y="1187.5897">0..*</text><text fill="#000000" font-family="sans-serif" font-size="13" lengthAdjust="spacing" textLength="8" x="598.1352" y="1491.3692">1</text></g><!--MD5=[7b4ddf09a64e09e9b1d4e3ce48fa3a52]
link Operation to Notaire--><g id="link_Operation_Notaire"><path codeLine="105" d="M287.331,1142.192 C166.153,1241.563 39.1145,1356.205 59.5,1385 C111.304,1458.1729 395.726,1488.0482 504.853,1496.9269 " fill="none" id="Operation-Notaire-2" style="stroke:#181818;stroke-width:1.0;"/><polygon fill="#000000" points="61.8863,1372.304,64.1091,1381.5511,69.1199,1378.4785,61.8863,1372.304" style="stroke:#000000;stroke-width:1.0;"/><text fill="#000000" font-family="sans-serif" font-size="13" lengthAdjust="spacing" textLength="144" x="73.5" y="1381.0669">adds minute signature</text><text fill="#000000" font-family="sans-serif" font-size="13" lengthAdjust="spacing" textLength="23" x="256.6523" y="1144.7164">0..*</text><text fill="#000000" font-family="sans-serif" font-size="13" lengthAdjust="spacing" textLength="8" x="489.1271" y="1492.088">1</text></g><!--MD5=[7b4ddf09a64e09e9b1d4e3ce48fa3a52]
link Operation to Notaire--><g id="link_Operation_Notaire"><path codeLine="106" d="M287.358,1173.903 C239.099,1241.832 213.116,1318.095 258.5,1385 C314.202,1467.1152 438.834,1490.598 504.746,1497.3124 " fill="none" id="Operation-Notaire-3" style="stroke:#181818;stroke-width:1.0;"/><polygon fill="#000000" points="260.7107,1372.4167,263.3175,1381.5631,268.1957,1378.284,260.7107,1372.4167" style="stroke:#000000;stroke-width:1.0;"/><text fill="#000000" font-family="sans-serif" font-size="13" lengthAdjust="spacing" textLength="145" x="272.5" y="1381.0669">initializes tax payment</text><text fill="#000000" font-family="sans-serif" font-size="13" lengthAdjust="spacing" textLength="23" x="256.6802" y="1177.567">0..*</text><text fill="#000000" font-family="sans-serif" font-size="13" lengthAdjust="spacing" textLength="8" x="489.0024" y="1510.0217">1</text></g><!--MD5=[7b4ddf09a64e09e9b1d4e3ce48fa3a52]
link Operation to Notaire--><g id="link_Operation_Notaire"><path codeLine="107" d="M462.403,1276.081 C464.736,1313.144 469.992,1350.238 479.5,1385 C488.985,1419.678 511.913,1454.5209 528.528,1476.6167 " fill="none" id="Operation-Notaire-4" style="stroke:#181818;stroke-width:1.0;"/><polygon fill="#000000" points="482.9342,1371.8179,482.9756,1381.3284,488.5578,1379.4877,482.9342,1371.8179" style="stroke:#000000;stroke-width:1.0;"/><text fill="#000000" font-family="sans-serif" font-size="13" lengthAdjust="spacing" textLength="31" x="493.5" y="1381.0669">ends</text><text fill="#000000" font-family="sans-serif" font-size="13" lengthAdjust="spacing" textLength="23" x="438.3778" y="1296.1365">0..*</text><text fill="#000000" font-family="sans-serif" font-size="13" lengthAdjust="spacing" textLength="8" x="514.9286" y="1465.9282">1</text></g><!--MD5=[e7540c3f41a02d8559762cf85ca4c59e]
link Banque to Operation--><g id="link_Banque_Operation"><path codeLine="109" d="M92.0888,983 C137.865,983 213.984,983 287.422,983 " fill="none" id="Banque-Operation" style="stroke:#181818;stroke-width:1.0;"/><polygon fill="#000000" points="119.25,971.5664,110.2049,968.6275,110.2049,974.5053,119.25,971.5664" style="stroke:#000000;stroke-width:1.0;"/><text fill="#000000" font-family="sans-serif" font-size="13" lengthAdjust="spacing" textLength="146" x="123.25" y="976.0669">(grants|rejects) credits</text><text fill="#000000" font-family="sans-serif" font-size="13" lengthAdjust="spacing" textLength="8" x="100.0963" y="978.7892">1</text><text fill="#000000" font-family="sans-serif" font-size="13" lengthAdjust="spacing" textLength="23" x="256.7465" y="995.3425">0..*</text></g><!--MD5=[e7540c3f41a02d8559762cf85ca4c59e]
link Banque to Operation--><g id="link_Banque_Operation"><path codeLine="110" d="M92.0591,994.601 C106.5939,998.024 123.023,1001.306 138.25,1003 C186.359,1008.354 238.343,1008.476 287.193,1006.093 " fill="none" id="Banque-Operation-1" style="stroke:#181818;stroke-width:1.0;"/><polygon fill="#000000" points="148.2414,994.8604,139.3847,991.3947,139.0391,997.2624,148.2414,994.8604" style="stroke:#000000;stroke-width:1.0;"/><text fill="#000000" font-family="sans-serif" font-size="13" lengthAdjust="spacing" textLength="88" x="152.25" y="999.0669">unlocks funds</text><text fill="#000000" font-family="sans-serif" font-size="13" lengthAdjust="spacing" textLength="8" x="100.0614" y="1009.9623">1</text><text fill="#000000" font-family="sans-serif" font-size="13" lengthAdjust="spacing" textLength="23" x="256.5093" y="1019.2654">0..*</text></g><!--MD5=[78d1867fcd58b2fd4b8b5f68d5e24d03]
link Operation to CDG--><g id="link_Operation_CDG"><path codeLine="112" d="M691.517,963.477 C760.212,958.7 827.951,956.576 861,963 C866.732,964.114 872.641,965.891 878.292,967.937 " fill="none" id="Operation-CDG" style="stroke:#181818;stroke-width:1.0;"/><polygon fill="#000000" points="727.0014,948.447,735.9738,951.6011,736.1141,945.7249,727.0014,948.447" style="stroke:#000000;stroke-width:1.0;"/><text fill="#000000" font-family="sans-serif" font-size="13" lengthAdjust="spacing" textLength="101" x="741" y="953.0669">accepts deposit</text><text fill="#000000" font-family="sans-serif" font-size="13" lengthAdjust="spacing" textLength="23" x="699.1903" y="959.5788">0..*</text><text fill="#000000" font-family="sans-serif" font-size="13" lengthAdjust="spacing" textLength="8" x="862.3715" y="960.0828">1</text></g><!--MD5=[78d1867fcd58b2fd4b8b5f68d5e24d03]
link Operation to CDG--><g id="link_Operation_CDG"><path codeLine="113" d="M691.822,1001.419 C754.485,1005.578 815.046,1007.579 845.5,1003 C856.358,1001.367 867.906,998.281 878.208,995.014 " fill="none" id="Operation-CDG-1" style="stroke:#181818;stroke-width:1.0;"/><polygon fill="#000000" points="724.5029,994.7381,733.6436,997.3647,733.4418,991.4903,724.5029,994.7381" style="stroke:#000000;stroke-width:1.0;"/><text fill="#000000" font-family="sans-serif" font-size="13" lengthAdjust="spacing" textLength="106" x="738.5" y="999.0669">pays beneficiary</text><text fill="#000000" font-family="sans-serif" font-size="13" lengthAdjust="spacing" textLength="23" x="699.5062" y="998.8843">0..*</text><text fill="#000000" font-family="sans-serif" font-size="13" lengthAdjust="spacing" textLength="8" x="862.7228" y="993.0256">1</text></g><!--MD5=[78d1867fcd58b2fd4b8b5f68d5e24d03]
link Operation to CDG--><g id="link_Operation_CDG"><path codeLine="114" d="M691.676,983 C763.995,983 837.625,983 878.353,983 " fill="none" id="Operation-CDG-2" style="stroke:#181818;stroke-width:1.0;"/><polygon fill="#000000" points="709,971.5664,718.0451,974.5053,718.0451,968.6275,709,971.5664" style="stroke:#000000;stroke-width:1.0;"/><text fill="#000000" font-family="sans-serif" font-size="13" lengthAdjust="spacing" textLength="137" x="723" y="976.0669">accepts tax payment</text><text fill="#000000" font-family="sans-serif" font-size="13" lengthAdjust="spacing" textLength="23" x="699.355" y="979.8034">0..*</text><text fill="#000000" font-family="sans-serif" font-size="13" lengthAdjust="spacing" textLength="8" x="862.4458" y="978.4408">1</text></g><!--MD5=[655048c3d41cea65d3ac969b405470f1]
link DGI to Operation--><g id="link_DGI_Operation"><path codeLine="116" d="M723.641,660.172 C715.288,671.654 704.255,686.819 691.523,704.319 " fill="none" id="DGI-Operation" style="stroke:#181818;stroke-width:1.0;"/><polygon fill="#000000" points="625.2825,675.5986,632.9803,670.0134,628.2272,666.5554,625.2825,675.5986" style="stroke:#000000;stroke-width:1.0;"/><text fill="#000000" font-family="sans-serif" font-size="13" lengthAdjust="spacing" textLength="71" x="637.224" y="676.0559">pays taxes</text><text fill="#000000" font-family="sans-serif" font-size="13" lengthAdjust="spacing" textLength="8" x="710.5566" y="679.9751">1</text><text fill="#000000" font-family="sans-serif" font-size="13" lengthAdjust="spacing" textLength="23" x="699.1965" y="691.1073">0..*</text></g><!--MD5=[d38032bfee76d6bed6321ba5a83aec90]
link ANCFCC to Operation--><g id="link_ANCFCC_Operation"><path codeLine="117" d="M311.394,533.008 C302.108,562.789 289.615,616.073 301.5,660 C304.205,669.998 307.306,680.004 310.744,689.978 " fill="none" id="ANCFCC-Operation" style="stroke:#181818;stroke-width:1.0;"/><polygon fill="#000000" points="306.4793,641.0664,309.4557,632.0335,303.5778,632.0092,306.4793,641.0664" style="stroke:#000000;stroke-width:1.0;"/><text fill="#000000" font-family="sans-serif" font-size="13" lengthAdjust="spacing" textLength="139" x="315.5" y="640.5669">formalizes guaranties</text><text fill="#000000" font-family="sans-serif" font-size="13" lengthAdjust="spacing" textLength="8" x="300.2918" y="553.1658">1</text><text fill="#000000" font-family="sans-serif" font-size="13" lengthAdjust="spacing" textLength="23" x="306.3013" y="679.0667">0..*</text></g><!--MD5=[d4d5ed3a3b15636eaa78feab5e2eead6]
link Promoteur to Operation--><g id="link_Promoteur_Operation"><path codeLine="118" d="M456.212,533.085 C458.535,564.411 462.959,624.081 467.842,689.933 " fill="none" id="Promoteur-Operation" style="stroke:#181818;stroke-width:1.0;"/><polygon fill="#000000" points="470.8697,641.0527,473.1318,631.8151,467.27,632.2497,470.8697,641.0527" style="stroke:#000000;stroke-width:1.0;"/><text fill="#000000" font-family="sans-serif" font-size="13" lengthAdjust="spacing" textLength="37" x="479.5" y="640.5669">views</text><text fill="#000000" font-family="sans-serif" font-size="13" lengthAdjust="spacing" textLength="8" x="447.6257" y="553.2626">1</text><text fill="#000000" font-family="sans-serif" font-size="13" lengthAdjust="spacing" textLength="23" x="443.9612" y="679.0205">0..*</text></g><!--MD5=[1af62e746fe7339fae6329a650191065]
reverse link User to Notification--><g id="link_User_Notification"><path codeLine="120" d="M600.696,371.65 C607.478,392.76 614.689,415.21 621.26,435.66 " fill="none" id="User-backto-Notification" style="stroke:#181818;stroke-width:1.0;"/><polygon fill="#181818" points="596.65,359.06,594.6817,365.9973,600.3283,370.4824,602.2966,363.5451,596.65,359.06" style="stroke:#181818;stroke-width:1.0;"/><text fill="#000000" font-family="sans-serif" font-size="13" lengthAdjust="spacing" textLength="23" x="612.5" y="402.0669">has</text><text fill="#000000" font-family="sans-serif" font-size="13" lengthAdjust="spacing" textLength="23" x="574.7604" y="378.822">1..*</text><text fill="#000000" font-family="sans-serif" font-size="13" lengthAdjust="spacing" textLength="23" x="594.9488" y="425.0386">0..*</text></g><!--MD5=[245c04daa7f9ba89c218d94c302bfe4b]
link Notification to Operation--><g id="link_Notification_Operation"><path codeLine="121" d="M620.79,582.2 C611.876,609.344 601.09,642.192 589.574,677.258 " fill="none" id="Notification-to-Operation" style="stroke:#181818;stroke-width:1.0;"/><polygon fill="#181818" points="585.473,689.748,591.1457,685.2959,589.2179,678.3473,583.5452,682.7994,585.473,689.748" style="stroke:#181818;stroke-width:1.0;"/><text fill="#000000" font-family="sans-serif" font-size="13" lengthAdjust="spacing" textLength="23" x="608.5" y="640.5669">has</text><text fill="#000000" font-family="sans-serif" font-size="13" lengthAdjust="spacing" textLength="23" x="594.5441" y="601.7226">0..*</text><text fill="#000000" font-family="sans-serif" font-size="13" lengthAdjust="spacing" textLength="8" x="579.916" y="678.8306">1</text></g><!--MD5=[478425156ee10c55cac736d5b0b47b37]
link Admin to User--><g id="link_Admin_User"><path codeLine="123" d="M410.408,136.26 C436.815,160.34 467.046,187.91 494.249,212.72 " fill="none" id="Admin-User" style="stroke:#181818;stroke-width:1.0;"/><polygon fill="#000000" points="466.1944,177.9356,461.4915,169.6692,457.5308,174.0122,466.1944,177.9356" style="stroke:#000000;stroke-width:1.0;"/><text fill="#000000" font-family="sans-serif" font-size="13" lengthAdjust="spacing" textLength="60" x="471.5" y="179.0669">manages</text><text fill="#000000" font-family="sans-serif" font-size="13" lengthAdjust="spacing" textLength="8" x="410.0286" y="156.6616">1</text><text fill="#000000" font-family="sans-serif" font-size="13" lengthAdjust="spacing" textLength="23" x="462.3157" y="201.8524">0..*</text></g><!--MD5=[45adc80f53f48b4d8483d90a614e70cc]
link Admin to Operation--><g id="link_Admin_Operation"><path codeLine="124" d="M293.357,136.06 C250.316,201.33 195.255,307.1 208.5,406 C221.552,503.46 259.08,602.275 302.63,689.895 " fill="none" id="Admin-Operation" style="stroke:#181818;stroke-width:1.0;"/><polygon fill="#000000" points="213.5837,402.5657,216.3708,393.4727,210.4938,393.5711,213.5837,402.5657" style="stroke:#000000;stroke-width:1.0;"/><text fill="#000000" font-family="sans-serif" font-size="13" lengthAdjust="spacing" textLength="60" x="222.5" y="402.0669">manages</text><text fill="#000000" font-family="sans-serif" font-size="13" lengthAdjust="spacing" textLength="8" x="279.4436" y="156.4385">1</text><text fill="#000000" font-family="sans-serif" font-size="13" lengthAdjust="spacing" textLength="23" x="274.3608" y="678.9815">0..*</text></g><!--MD5=[602b4e75a139e5439ab4a13383193cef]
@startuml
skinparam classAttributeIconSize 0

enum TaxPaymentStatus {
    ACCEPTED
    INITIALIZED
    PENDING
    PAID
}

enum DepositStatus{
    ACCEPTED
    SIGNED
    PENDING
}

enum BeneficiaryPaymentStatus {
    REALIZED
    PENDING
}
enum CreditStatus {
    GRANTED
    REJECTED
    PENDING
}

abstract class User {
  -String username
  -String password
  -String name
  -int idUser
  +bool login(username: String, password: String)
  +void logout()
}

class Admin {
    -int idAdmin
    -String username
    -String password
    
    +login(username: String, password: String): bool
    +logout()
}




class Operation {
    -String reference
    -String[] buyers
    -String[] sellers
    -Date date
    -float amount
    -DepositStatus depositStatus
    -File depositFile
    -File engagementNotarieFile
    -File sellingFile
    -File minuteSignatureFile
    -File taxPaymentFile
    -File[] guaranteeFiles
    -CreditStatus creditStatus
    -String beneficiaryId
    -BeneficiaryPaymentStatus beneficiaryPaymentStatus    
    -TaxPaymentStatus taxPaymentStatus
    -bool fundsUnblocked
    -bool ended
    
    +getAll(String query)
    +addNewOperation()
    +viewOperationDetails()
    +endOperation(): bool
    +changeCreditStatus(): bool
    +unlockFunds(): bool
    +addEngagementNotarieFile(): bool
    +signDeposit(): bool
    +acceptDeposit(): bool
    +addSignatureLaMinuteFile(): bool
    +initiateTaxPayment(): bool
    +acceptTaxPayment(): bool
    +payTaxes(): bool
    +formalizeGaranties(): bool
    +payBeneficiary(): bool
}

class Notification {
    -int idNotification
    -String message
    +getAll()
    +AddNotification()
    +viewNotificationDetails()
    +markAsRead()
}



User <|- - Notaire
User <|- - Banque
User <|- - CDG
User <|- - DGI
User <|- - ANCFCC
User <|- - Promoteur

Notaire "1" *- -up- -  "0..*" Operation : > initiates
Notaire "1" - -up- -  "0..*" Operation : > adds engagement notarie
Notaire "1" - -up- -  "0..*" Operation : > signs deposit
Notaire "1" - -up- -  "0..*" Operation : > adds minute signature
Notaire "1" - -up- -  "0..*" Operation : > initializes tax payment
Notaire "1" - -up- -  "0..*" Operation : > ends

Banque "1" -right-  "0..*" Operation : > (grants|rejects) credits
Banque "1" -right-  "0..*" Operation : > unlocks funds

CDG "1" -left-  "0..*" Operation : > accepts deposit
CDG "1" -left-  "0..*" Operation : > pays beneficiary
CDG "1" -left-  "0..*" Operation : > accepts tax payment

DGI "1" -right-  "0..*" Operation : > pays taxes
ANCFCC "1" - -  "0..*" Operation : > formalizes guaranties
Promoteur "1" - -  "0..*" Operation : > views

User "1..*" *- - "0..*" Notification : has
Operation "1" *-up- "0..*" Notification : has

Admin "1" - - "0..*" User : > manages
Admin "1" - - "0..*" Operation : > manages
@enduml

PlantUML version 1.2022.7beta2(Unknown compile time)
(GPL source distribution)
Java Runtime: Java(TM) SE Runtime Environment
JVM: Java HotSpot(TM) 64-Bit Server VM
Default Encoding: UTF-8
Language: en
Country: US
--></g></svg>